<svg width="331" height="16" viewBox="0 0 331 16" fill="none" xmlns="http://www.w3.org/2000/svg">
<path d="M6 13.3333C8.94552 13.3333 11.3333 10.9455 11.3333 8C11.3333 5.05448 8.94552 2.66667 6 2.66667C3.05448 2.66667 0.666667 5.05448 0.666667 8C0.666667 10.9455 3.05448 13.3333 6 13.3333ZM330.707 8.70711C331.098 8.31658 331.098 7.68342 330.707 7.29289L324.343 0.928932C323.953 0.538408 323.319 0.538408 322.929 0.928932C322.538 1.31946 322.538 1.95262 322.929 2.34315L328.586 8L322.929 13.6569C322.538 14.0474 322.538 14.6805 322.929 15.0711C323.319 15.4616 323.953 15.4616 324.343 15.0711L330.707 8.70711ZM6 9L330 9V7L6 7V9Z" fill="#E63946"/>
</svg>
