<svg width="15" height="25" viewBox="0 0 15 25" fill="none" xmlns="http://www.w3.org/2000/svg">
<path d="M14.01 0.5C14.3433 0.833333 14.51 1.24167 14.51 1.725C14.51 2.20833 14.3433 2.61667 14.01 2.95L4.65999 12.325L14.01 21.7C14.3433 22.0333 14.51 22.4375 14.51 22.9125C14.51 23.3875 14.3475 23.7917 14.0225 24.125C13.6975 24.4583 13.2933 24.625 12.81 24.625C12.3267 24.625 11.9183 24.4583 11.585 24.125L0.984985 13.525C0.651652 13.1917 0.484985 12.7875 0.484985 12.3125C0.484985 11.8375 0.651652 11.4333 0.984985 11.1L11.585 0.5C11.9183 0.166667 12.3267 0 12.81 0C13.2933 0 13.6933 0.166667 14.01 0.5Z" fill="#14142B"/>
</svg>
