<svg width="20" height="20" viewBox="0 0 20 20" fill="none" xmlns="http://www.w3.org/2000/svg">
<path d="M1.66797 4.9987C1.66797 4.55667 1.84356 4.13275 2.15612 3.82019C2.46868 3.50763 2.89261 3.33203 3.33464 3.33203H16.668C17.11 3.33203 17.5339 3.50763 17.8465 3.82019C18.159 4.13275 18.3346 4.55667 18.3346 4.9987V14.9987C18.3346 15.4407 18.159 15.8646 17.8465 16.1772C17.5339 16.4898 17.11 16.6654 16.668 16.6654H3.33464C2.89261 16.6654 2.46868 16.4898 2.15612 16.1772C1.84356 15.8646 1.66797 15.4407 1.66797 14.9987V4.9987Z" stroke="white" stroke-width="2" stroke-linecap="round" stroke-linejoin="round"/>
<path d="M1.66797 6.66797L7.9188 11.6688C8.50988 12.1417 9.24432 12.3994 10.0013 12.3994C10.7583 12.3994 11.4927 12.1417 12.0838 11.6688L18.3346 6.66797" stroke="white" stroke-width="2" stroke-linecap="round" stroke-linejoin="round"/>
</svg>
