<svg width="20" height="20" viewBox="0 0 20 20" fill="none" xmlns="http://www.w3.org/2000/svg">
<g clip-path="url(#clip0_3006_217)">
<path d="M8.79454 5.19823L5.97538 1.94407C5.65038 1.56907 5.05454 1.57073 4.67704 1.94907L2.35871 4.27157C1.66871 4.9624 1.47121 5.98823 1.87038 6.81073C4.25506 11.7482 8.23708 15.7358 13.1712 18.1274C13.9929 18.5266 15.0179 18.3291 15.7079 17.6382L18.0479 15.2941C18.427 14.9149 18.4279 14.3157 18.0495 13.9907L14.7829 11.1866C14.4412 10.8932 13.9104 10.9316 13.5679 11.2749L12.4312 12.4132C12.373 12.4742 12.2964 12.5144 12.2132 12.5277C12.1299 12.5409 12.0446 12.5265 11.9704 12.4866C10.1124 11.4166 8.5712 9.87343 7.50371 8.01407C7.46373 7.93969 7.44926 7.85426 7.4625 7.77086C7.47575 7.68747 7.51599 7.61073 7.57704 7.5524L8.71038 6.41823C9.05371 6.07323 9.09121 5.5399 8.79454 5.1974V5.19823Z" stroke="white" stroke-width="2" stroke-linecap="round" stroke-linejoin="round"/>
</g>
<defs>
<clipPath id="clip0_3006_217">
<rect width="20" height="20" fill="white"/>
</clipPath>
</defs>
</svg>
