<svg width="107" height="107" viewBox="0 0 107 107" fill="none" xmlns="http://www.w3.org/2000/svg">
<path d="M42.0906 71.3758C41.1294 68.1256 38.5873 65.5835 35.3371 64.6223L1.29617 54.5551C0.102157 54.202 0.102166 52.5109 1.29617 52.1578L35.3371 42.0906C38.5873 41.1294 41.1294 38.5873 42.0906 35.3371L52.1578 1.29617C52.5109 0.102159 54.202 0.102165 54.5551 1.29617L64.6223 35.3371C65.5835 38.5873 68.1256 41.1294 71.3758 42.0906L105.417 52.1578C106.611 52.5109 106.611 54.202 105.417 54.5551L71.3758 64.6223C68.1256 65.5835 65.5835 68.1256 64.6223 71.3758L54.5551 105.417C54.202 106.611 52.5109 106.611 52.1578 105.417L42.0906 71.3758Z" fill="#E63946" fill-opacity="0.25"/>
</svg>
